<svg id="Layer_1" xmlns="http://www.w3.org/2000/svg" viewBox="0 0 30 33"><style>.st0{fill:#ff7543}.st1{fill:#ff0057}.st2{fill:#ae0658}.st3{fill:#43e4ff}.st4{fill:#00b1ff}.st5{fill:#074bad}.st6{fill:#c1ff48}.st7{fill:#3c3}.st8{fill:#090}</style><title>Page 1</title><path id="Fill-1" class="st0" d="M0 12.3l11.4 5.3L23.2 5.7z"/><path id="Fill-2" class="st1" d="M11.4 17.6l-6.3-3.9 18.1-8z"/><path id="Fill-3" class="st2" d="M11.4 17.6l-3-3 14.8-8.9z"/><path id="Fill-4" class="st3" d="M30 0L19.7 7.3l4.4 16.1z"/><path id="Fill-5" class="st4" d="M19.7 7.3l6.6-3.5-2.2 19.6z"/><path id="Fill-6" class="st5" d="M19.7 7.3l4.2-1.2.2 17.3z"/><path id="Fill-7" class="st6" d="M11.4 17.6L10 17l15.7 15.2-1.1-12.6-12-3.1z"/><path id="Fill-8" class="st7" d="M11.4 17.6l12.9 9.5.3-7.5-12-3.1z"/><path id="Fill-9" class="st8" d="M11.8 17.3l11.6 6.5 1.2-4.2-12-3.1z"/></svg>